# xmcd
#
# Track frame offsets:
#	150
#	37641
#	74497
#	110799
#	141946
#	179693
#	202762
#	229448
#	298791
#
# Disc length: 4521 seconds
#
# Revision: 1
# Processed by: cddbd v1.5PL3 Copyright (c) Steve Scherf et al.
# Submitted via: audiograbber 1.82.01
#
DISCID=8b11a709
DTITLE=Rory Gallagher - 1976-10-06 - Cologne Germany - Disc 1
DYEAR=1900
DGENRE=
TTITLE0=Rory Gallagher - Goin`To My Hometown
TTITLE1=Rory Gallagher - I Take What I Want
TTITLE2=Rory Gallagher - Calling Card
TTITLE3=Rory Gallagher - Secret Agent
TTITLE4=Rory Gallagher - Do You Read Me
TTITLE5=Rory Gallagher - Bought And Sold
TTITLE6=Rory Gallagher - Country Mile
TTITLE7=Rory Gallagher - Jacknife Beat_Boogie
TTITLE8=Rory Gallagher - Interview and Guitar
EXTD=
EXTT0=
EXTT1=
EXTT2=
EXTT3=
EXTT4=
EXTT5=
EXTT6=
EXTT7=
EXTT8=
PLAYORDER=
